<svg width="73" height="81" viewBox="0 0 73 81" fill="none" xmlns="http://www.w3.org/2000/svg">
<path fill-rule="evenodd" clip-rule="evenodd" d="M6.17645 12.0477H21.3162L21.8382 13.6139L18.7059 15.7021L20.7941 18.8345L18.7059 21.9668L21.8382 24.0551V25.0992H6.17645L8.78675 18.3124L6.17645 12.0477Z" stroke="#EF7F1A" stroke-width="2.08824" stroke-miterlimit="22.9256" stroke-linecap="round" stroke-linejoin="round"/>
<path fill-rule="evenodd" clip-rule="evenodd" d="M67.2573 12.0477H51.5955L51.0735 13.6139L53.6838 15.7021L52.1176 18.8345L53.6838 21.9668L51.0735 24.0551V25.0992H67.2573L64.125 18.3124L67.2573 12.0477Z" stroke="#EF7F1A" stroke-width="2.08824" stroke-miterlimit="22.9256" stroke-linecap="round" stroke-linejoin="round"/>
<path fill-rule="evenodd" clip-rule="evenodd" d="M36.4559 1.08447L39.0662 3.69477L42.7206 2.12859L44.2868 5.26094H47.9412L48.4632 8.91536L51.5956 9.95947L51.0735 13.6139L53.6838 15.7021L52.1176 18.8345L53.6838 21.9668L51.0735 24.0551L51.5956 27.7095L48.4632 28.7536L47.9412 32.408H44.2868L42.7206 35.5404L39.0662 33.9742L36.4559 36.5845L33.8456 33.9742L30.1912 35.5404L28.625 32.408H24.9706L24.4485 28.7536L20.7941 27.7095L21.8382 24.0551L18.7059 21.9668L20.7941 18.8345L18.7059 15.7021L21.8382 13.6139L20.7941 9.95947L24.4485 8.91536L24.9706 5.26094H28.625L30.1912 2.12859L33.8456 3.69477L36.4559 1.08447Z" stroke="#EF7F1A" stroke-width="2.08824" stroke-miterlimit="22.9256" stroke-linecap="round" stroke-linejoin="round"/>
<path fill-rule="evenodd" clip-rule="evenodd" d="M36.4559 5.78299L38.5441 7.87123L40.6323 6.82711L42.1985 8.91534H44.8088V11.5256L47.4191 12.5698L46.897 14.658L48.9853 16.7462L47.4191 18.8345L48.9853 20.9227L46.897 22.4889L47.4191 25.0992L44.8088 26.1433V28.7536L42.1985 28.2315L40.6323 30.8418L38.5441 29.7977L36.4559 31.3639L34.3676 29.7977L32.2794 30.8418L30.7132 28.7536H28.1029V26.1433L25.4926 25.0992L26.0147 22.4889L23.9265 20.9227L24.9706 18.8345L23.9265 16.7462L26.0147 15.18L25.4926 12.5698L27.5809 11.5256L28.1029 8.91534H30.7132L32.2794 6.82711L34.3676 7.87123L36.4559 5.78299Z" stroke="#EF7F1A" stroke-width="1.04412" stroke-miterlimit="22.9256" stroke-linecap="round" stroke-linejoin="round"/>
<path fill-rule="evenodd" clip-rule="evenodd" d="M33.8456 13.6139V10.4815H40.1103V13.6139H38.5441V24.0551H40.1103V26.6654H33.8456V24.0551H35.4118V13.6139H33.8456Z" stroke="#EF7F1A" stroke-width="1.04412" stroke-miterlimit="22.9256" stroke-linecap="round" stroke-linejoin="round"/>
<path fill-rule="evenodd" clip-rule="evenodd" d="M27.5809 38.6727L28.625 40.2389L30.7133 40.7609L29.6691 42.3271V44.4154L27.5809 43.8933L25.4927 44.4154V42.3271L24.4485 40.7609L26.0147 40.2389L27.5809 38.6727Z" stroke="#EF7F1A" stroke-width="1.04412" stroke-miterlimit="22.9256" stroke-linecap="round" stroke-linejoin="round"/>
<path fill-rule="evenodd" clip-rule="evenodd" d="M36.9779 39.7168L38.0221 41.283L40.1103 42.3271L39.0662 43.8933V45.9815L36.9779 45.4595L34.8897 45.9815V43.8933L33.8456 42.3271L35.4118 41.283L36.9779 39.7168Z" stroke="#EF7F1A" stroke-width="1.04412" stroke-miterlimit="22.9256" stroke-linecap="round" stroke-linejoin="round"/>
<path fill-rule="evenodd" clip-rule="evenodd" d="M46.375 38.1507L47.4191 39.7168L49.5074 40.2389L48.4633 41.8051V43.8933L46.375 43.3712L44.2868 43.8933V42.3271L43.2427 40.2389L44.8089 39.7168L46.375 38.1507Z" stroke="#EF7F1A" stroke-width="1.04412" stroke-miterlimit="22.9256" stroke-linecap="round" stroke-linejoin="round"/>
<path fill-rule="evenodd" clip-rule="evenodd" d="M42.1985 47.5477L43.2426 49.6359L45.3309 50.158L44.2867 51.7242V53.8124L42.1985 53.2904L40.1103 53.8124V51.7242L39.0662 50.158L41.1544 49.6359L42.1985 47.5477Z" stroke="#EF7F1A" stroke-width="1.04412" stroke-miterlimit="22.9256" stroke-linecap="round" stroke-linejoin="round"/>
<path fill-rule="evenodd" clip-rule="evenodd" d="M31.7574 47.5477L33.3235 49.1139L35.4118 50.158L33.8456 51.7242V53.8124L32.2794 53.2904L30.1912 53.8124V51.7242L28.625 50.158L30.7132 49.6359L31.7574 47.5477Z" stroke="#EF7F1A" stroke-width="1.04412" stroke-miterlimit="22.9256" stroke-linecap="round" stroke-linejoin="round"/>
<path fill-rule="evenodd" clip-rule="evenodd" d="M27.0588 69.9962C27.0588 67.3859 27.0588 63.2095 26.5368 60.5992C26.0147 57.9889 24.9706 56.4227 23.9265 55.3786C22.8824 54.3345 22.3603 53.2904 21.3162 52.2462C20.2721 51.2021 19.2279 50.158 18.1838 48.5918C16.6176 47.0257 14.5294 44.4154 13.4853 43.3712C11.9191 42.3271 10.875 42.8492 10.3529 42.8492C9.83088 43.3712 9.30882 43.8933 9.83088 44.4154C9.83088 44.9374 9.83088 45.4595 10.875 47.0257C11.9191 48.5918 12.9632 50.158 13.4853 51.7242C14.5294 53.2904 14.5294 54.3345 14.5294 54.8565C14.0074 55.3786 13.4853 55.3786 12.4412 53.8124C11.3971 52.2462 9.83088 49.6359 8.78677 47.5477C7.74265 45.4595 7.22059 44.4154 7.22059 42.3271C6.69853 40.2389 6.69853 37.1065 6.17647 35.0183C6.17647 33.4521 5.65441 31.8859 5.13235 31.3639C4.61029 30.8418 3.56618 30.8418 3.04412 30.8418C2.52206 31.3639 2 31.8859 2 32.408C2 33.4521 2 33.9742 2.52206 37.1065C2.52206 40.2389 3.04412 45.9815 3.04412 48.5918C3.56618 51.7242 3.56618 51.7242 5.65441 54.3345C7.74265 56.9448 11.3971 61.1212 13.4853 63.7315C15.0515 66.3418 15.0515 66.3418 15.5735 67.3859C15.5735 67.908 15.5735 68.9521 15.5735 69.9962H27.0588Z" stroke="#EF7F1A" stroke-width="2.08824" stroke-miterlimit="22.9256" stroke-linecap="round" stroke-linejoin="round"/>
<path d="M5.65442 32.9301C6.17648 32.9301 6.17648 32.408 6.69854 32.408C7.2206 32.408 7.74265 32.408 8.26471 32.9301L8.78677 33.4521C8.78677 33.9742 9.30883 34.4963 9.30883 36.0624C9.83089 37.6286 10.3529 40.2389 10.875 42.8492" stroke="#EF7F1A" stroke-width="2.08824" stroke-miterlimit="22.9256" stroke-linecap="round" stroke-linejoin="round"/>
<path d="M9.30884 34.4962C9.30884 34.4962 9.8309 34.4962 10.353 34.4962C10.353 34.4962 10.875 34.4962 11.3971 35.0183C11.3971 35.0183 11.9191 35.5404 11.9191 36.0624C12.4412 36.5845 12.4412 37.6286 12.9633 39.1948C12.9633 40.2389 13.4853 42.3271 14.0074 44.4154" stroke="#EF7F1A" stroke-width="2.08824" stroke-miterlimit="22.9256" stroke-linecap="round" stroke-linejoin="round"/>
<path d="M28.625 69.9962H12.9633V79.9154H28.625V69.9962Z" stroke="#EF7F1A" stroke-width="2.08824" stroke-miterlimit="22.9256" stroke-linecap="round" stroke-linejoin="round"/>
<path fill-rule="evenodd" clip-rule="evenodd" d="M45.3309 69.9962C45.3309 67.908 45.3309 63.7315 45.8529 60.5992C46.375 57.9889 47.4191 56.9448 48.4632 55.9007C49.5073 54.3345 50.5515 53.2904 51.5956 52.7683C52.6397 51.7242 53.1618 50.6801 54.7279 49.1139C56.2941 47.0257 58.3823 44.9374 59.4265 43.8933C60.9926 42.8492 62.0368 42.8492 62.5588 43.3712C63.0809 43.3712 63.6029 43.8933 63.6029 44.4154C63.0809 44.9374 63.0809 45.9815 62.0368 47.0257C61.5147 48.5918 59.9485 50.6801 59.4265 52.2462C58.3823 53.8124 58.3823 54.8565 58.3823 55.3786C58.9044 55.9007 59.4265 55.9007 60.4706 54.3345C61.5147 52.7683 63.0809 49.636 64.125 47.5477C65.1691 45.4595 65.6912 44.4154 65.6912 42.3271C66.2132 40.2389 66.7353 37.6286 66.7353 35.5404C67.2573 33.4521 67.2573 32.408 67.7794 31.3639C68.3015 30.8418 69.3456 30.8418 69.8676 31.3639C70.3897 31.3639 70.9118 31.886 70.9118 32.9301C71.4338 33.4521 70.9118 34.4962 70.9118 37.6286C70.3897 40.761 70.3897 45.9815 69.8676 48.5918C69.3456 51.7242 69.3456 52.2462 67.2573 54.3345C65.1691 56.9448 61.5147 61.6433 59.4265 63.7315C57.8603 66.3418 57.3382 66.3418 57.3382 67.386C57.3382 67.908 57.3382 68.9521 57.3382 69.9962H45.3309V69.9962Z" stroke="#EF7F1A" stroke-width="2.08824" stroke-miterlimit="22.9256" stroke-linecap="round" stroke-linejoin="round"/>
<path d="M67.2573 32.9301C66.7353 32.9301 66.7353 32.9301 66.2132 32.9301C65.6912 32.408 65.1691 32.408 65.1691 32.9301C64.647 32.9301 64.125 33.4521 64.125 33.9742C64.125 33.9742 64.125 34.4962 63.6029 36.0624C63.0809 37.6286 62.5588 40.2389 62.0367 42.8492" stroke="#EF7F1A" stroke-width="2.08824" stroke-miterlimit="22.9256" stroke-linecap="round" stroke-linejoin="round"/>
<path d="M63.603 35.0183C63.603 35.0183 63.0809 35.0183 62.5588 35.0183C62.5588 35.0183 62.0368 35.0183 61.5147 35.0183C61.5147 35.5404 60.9927 35.5404 60.9927 36.0624C60.4706 37.1065 60.4706 37.6286 59.9485 39.1948C59.4265 40.761 59.4265 42.3271 58.9044 44.4154" stroke="#EF7F1A" stroke-width="2.08824" stroke-miterlimit="22.9256" stroke-linecap="round" stroke-linejoin="round"/>
<path d="M59.4265 69.9962H43.2427V79.9154H59.4265V69.9962Z" stroke="#EF7F1A" stroke-width="2.08824" stroke-miterlimit="22.9256" stroke-linecap="round" stroke-linejoin="round"/>
</svg>
