<svg width="75" height="86" viewBox="0 0 75 86" fill="none" xmlns="http://www.w3.org/2000/svg">
<path fill-rule="evenodd" clip-rule="evenodd" d="M1 7.4895H15.7908V10.8294H43.9412V7.4895H59.2092V50.9078C58.732 50.9078 57.7778 50.9078 57.3007 50.9078C55.3922 50.9078 53.9608 50.9078 52.5294 51.3849V15.6006H15.3137L8.15686 21.8032V67.13H40.6013V67.6071C40.6013 69.9928 41.0784 72.3784 42.0327 74.2869H1V7.4895V7.4895Z" stroke="#EF7F1A" stroke-width="1.80791" stroke-miterlimit="22.9256" stroke-linecap="round" stroke-linejoin="round"/>
<path fill-rule="evenodd" clip-rule="evenodd" d="M15.7909 4.14941H24.3791V5.10366H34.8759V4.14941H43.9412V10.8292H15.7909V4.14941Z" stroke="#EF7F1A" stroke-width="1.80791" stroke-miterlimit="22.9256" stroke-linecap="round" stroke-linejoin="round"/>
<path d="M34.8758 1.76392H24.379V5.10379H34.8758V1.76392Z" stroke="#EF7F1A" stroke-width="1.80791" stroke-miterlimit="22.9256" stroke-linecap="round" stroke-linejoin="round"/>
<path fill-rule="evenodd" clip-rule="evenodd" d="M15.3137 15.6006H52.5294V51.3849C45.8497 53.2934 40.6013 59.496 40.6013 67.13H8.15686V21.8032L15.3137 15.6006V15.6006Z" stroke="#EF7F1A" stroke-width="1.80791" stroke-miterlimit="22.9256" stroke-linecap="round" stroke-linejoin="round"/>
<path fill-rule="evenodd" clip-rule="evenodd" d="M15.3137 15.6006L8.15686 21.8032H15.3137V15.6006Z" stroke="#EF7F1A" stroke-width="0.903955" stroke-miterlimit="22.9256" stroke-linecap="round" stroke-linejoin="round"/>
<path d="M21.0392 28.0056H13.8823V34.6854H21.0392V28.0056Z" stroke="#EF7F1A" stroke-width="0.903955" stroke-miterlimit="22.9256" stroke-linecap="round" stroke-linejoin="round"/>
<path d="M21.0392 41.3653H13.8823V48.045H21.0392V41.3653Z" stroke="#EF7F1A" stroke-width="0.903955" stroke-miterlimit="22.9256" stroke-linecap="round" stroke-linejoin="round"/>
<path d="M21.0392 53.7705H13.8823V60.4503H21.0392V53.7705Z" stroke="#EF7F1A" stroke-width="0.903955" stroke-miterlimit="22.9256" stroke-linecap="round" stroke-linejoin="round"/>
<path d="M25.3334 30.3914H47.2811" stroke="#EF7F1A" stroke-width="0.903955" stroke-miterlimit="22.9256" stroke-linecap="round" stroke-linejoin="round"/>
<path d="M25.8104 32.7769H39.1699" stroke="#EF7F1A" stroke-width="0.903955" stroke-miterlimit="22.9256" stroke-linecap="round" stroke-linejoin="round"/>
<path d="M25.3334 43.2737H47.2811" stroke="#EF7F1A" stroke-width="0.903955" stroke-miterlimit="22.9256" stroke-linecap="round" stroke-linejoin="round"/>
<path d="M25.8104 45.6595H39.1699" stroke="#EF7F1A" stroke-width="0.903955" stroke-miterlimit="22.9256" stroke-linecap="round" stroke-linejoin="round"/>
<path d="M25.3334 56.156H44.8955" stroke="#EF7F1A" stroke-width="0.903955" stroke-miterlimit="22.9256" stroke-linecap="round" stroke-linejoin="round"/>
<path d="M25.8104 58.5418H39.1699" stroke="#EF7F1A" stroke-width="0.903955" stroke-miterlimit="22.9256" stroke-linecap="round" stroke-linejoin="round"/>
<path d="M15.3137 31.3455L17.2222 33.254L20.085 29.437" stroke="#EF7F1A" stroke-width="0.903955" stroke-miterlimit="22.9256" stroke-linecap="round" stroke-linejoin="round"/>
<path d="M15.3137 44.228L17.2222 46.6137L20.085 42.7967" stroke="#EF7F1A" stroke-width="0.903955" stroke-miterlimit="22.9256" stroke-linecap="round" stroke-linejoin="round"/>
<path d="M15.3137 57.1104L17.2222 59.0189L20.085 55.2019" stroke="#EF7F1A" stroke-width="0.903955" stroke-miterlimit="22.9256" stroke-linecap="round" stroke-linejoin="round"/>
<path d="M57.3007 84.3064C66.5235 84.3064 74 76.8299 74 67.6071C74 58.3843 66.5235 50.9077 57.3007 50.9077C48.0779 50.9077 40.6013 58.3843 40.6013 67.6071C40.6013 76.8299 48.0779 84.3064 57.3007 84.3064Z" stroke="#EF7F1A" stroke-width="1.80791" stroke-miterlimit="22.9256"/>
<path d="M66.8431 65.2215H61.5947V75.7182H66.8431V65.2215Z" stroke="#EF7F1A" stroke-width="0.903955" stroke-miterlimit="22.9256"/>
<path d="M61.5947 66.1757C60.6405 65.2215 59.2091 64.2672 58.732 63.313C57.7777 62.8359 57.3006 61.8816 57.3006 61.4045C56.8235 60.9274 56.8235 59.9731 56.8235 59.496C56.3464 58.5418 56.3464 58.0646 56.3464 57.5875C56.3464 57.5875 56.3464 57.1104 55.8692 57.1104C55.8692 57.1104 55.3921 57.1104 54.915 57.1104C54.4379 57.1104 54.4379 57.1104 54.4379 57.5875C53.9607 58.0646 53.9607 58.5418 53.9607 59.496C53.4836 59.9731 53.4836 60.9274 53.9607 61.8816C53.9607 62.8359 53.9607 63.313 54.4379 64.2672C54.4379 64.7444 54.915 64.7444 54.915 64.7444C54.915 65.2215 54.4379 65.2215 53.4836 65.2215C52.5294 65.2215 50.1437 65.2215 49.1895 65.2215C48.2353 65.2215 47.7581 65.2215 47.7581 65.2215C47.7581 65.6986 47.281 66.1757 47.281 66.1757C47.281 66.6529 47.281 67.13 47.281 67.13C47.7581 67.6071 47.7581 68.0842 48.2353 68.0842C48.2353 68.0842 48.2353 68.0842 48.2353 68.5614C47.7581 68.5614 47.7581 68.5614 47.7581 69.0385V69.5156C48.2353 69.9927 48.2353 70.4699 48.2353 70.4699C48.7124 70.4699 48.7124 70.4699 48.7124 70.947C48.7124 71.4241 48.2353 71.4241 48.2353 71.9012C48.2353 72.3784 48.7124 72.3784 48.7124 72.8555C49.1895 73.3326 49.6666 73.3326 49.6666 73.3326V73.8097C49.6666 73.8097 49.6666 73.8097 49.6666 74.2869C49.6666 74.2869 49.6666 74.764 50.1437 75.2411C50.1437 75.2411 50.6209 75.7182 52.0522 75.7182C53.4836 75.7182 55.8692 75.7182 57.7777 75.2411C59.6862 75.2411 60.6405 74.764 61.5947 74.2869" stroke="#EF7F1A" stroke-width="0.903955" stroke-miterlimit="22.9256"/>
</svg>
